<?xml version="1.0" encoding="utf-8"?>
<!-- Generator: Adobe Illustrator 28.2.0, SVG Export Plug-In . SVG Version: 6.00 Build 0)  -->
<svg version="1.1" id="Layer_1" xmlns="http://www.w3.org/2000/svg" xmlns:xlink="http://www.w3.org/1999/xlink" x="0px" y="0px"
	 viewBox="0 0 640 512" style="enable-background:new 0 0 640 512;" xml:space="preserve">
<style type="text/css">
	.st0{fill:#757575;}
</style>
<path class="st0" d="M38.8,5.1C28.4-3.1,13.3-1.2,5.1,9.2s-6.3,25.5,4.1,33.7l592,464c10.4,8.2,25.5,6.3,33.7-4.1s6.3-25.5-4.1-33.7
	l-105.2-82.4c39.6-40.6,66.4-86.1,79.9-118.4c3.3-7.9,3.3-16.7,0-24.6c-14.9-35.7-46.2-87.7-93-131.1C465.5,68.8,400.8,32,320,32
	c-68.2,0-125,26.3-169.3,60.8L38.8,5.1z M189.8,123.4C226,97.7,269.5,80,320,80c65.2,0,118.8,29.6,159.9,67.7
	C518.4,183.5,545,226,558.6,256c-12.6,28-36.6,66.8-70.9,100.9l-53.8-42.2c9.1-17.6,14.2-37.5,14.2-58.7c0-70.7-57.3-128-128-128
	c-32.2,0-61.7,11.9-84.2,31.5L189.8,123.4L189.8,123.4z M394.9,284.2l-81.5-63.9c4.2-8.5,6.6-18.2,6.6-28.3c0-5.5-0.7-10.9-2-16
	c0.7,0,1.3,0,2,0c44.2,0,80,35.8,80,80C400,265.9,398.2,275.4,394.9,284.2z M446.2,447.5l-41.9-33C378.8,425.4,350.7,432,320,432
	c-65.2,0-118.8-29.6-159.9-67.7C121.6,328.5,95,286,81.4,256c8.3-18.4,21.5-41.5,39.4-64.8l-37.7-29.7
	c-22.8,29.7-39.1,59.3-48.6,82.2c-3.3,7.9-3.3,16.7,0,24.6c14.9,35.7,46.2,87.7,93,131.1c47,43.8,111.7,80.6,192.5,80.6
	C367.8,480,409.9,467.1,446.2,447.5L446.2,447.5z M358.2,378.2L302,334c-23.5-5.4-43.1-21.2-53.7-42.3l-56.1-44.2
	c-0.2,2.8-0.3,5.6-0.3,8.5c0,70.7,57.3,128,128,128C333.2,384,346,382,358.2,378.2L358.2,378.2z"/>
</svg>
