<?xml version="1.0" encoding="utf-8"?>
<!-- Generator: Adobe Illustrator 28.2.0, SVG Export Plug-In . SVG Version: 6.00 Build 0)  -->
<svg version="1.1" id="Layer_1" xmlns="http://www.w3.org/2000/svg" xmlns:xlink="http://www.w3.org/1999/xlink" x="0px" y="0px"
	 viewBox="0 0 448 512" style="enable-background:new 0 0 448 512;" xml:space="preserve">
<style type="text/css">
	.st0{fill:#757575;}
</style>
<path class="st0" d="M384,192h-16v-48C368,64.5,303.5,0,224,0S80,64.5,80,144v48H64c-35.3,0-64,28.7-64,64v192c0,35.3,28.7,64,64,64
	h320c35.3,0,64-28.7,64-64V256C448,220.7,419.3,192,384,192z M144,144c0-44.2,35.8-80,80-80s80,35.8,80,80v48H144V144z M407.6,427.9
	c0,18.4-15,33.4-33.4,33.4h-292c-18.4,0-33.4-15-33.4-33.4V277.3c0-18.4,15-33.4,33.4-33.4h292c18.4,0,33.4,15,33.4,33.4V427.9z"/>
</svg>
